<?xml version="1.0" encoding="UTF-8" standalone="no"?><svg xmlns="http://www.w3.org/2000/svg" xmlns:xlink="http://www.w3.org/1999/xlink" fill="#000000" height="505.2" preserveAspectRatio="xMidYMid meet" version="1" viewBox="0.0 0.0 505.2 505.2" width="505.2" zoomAndPan="magnify"><g><g><g id="change1_27"><path d="M400.3059,286.3477c0.2652-1.2002,0.5887-2.3876,0.8201-3.5957l0.6369-3.6363 c0.21-1.2123,0.4555-2.4185,0.6505-3.6339l0.452-3.6695l100.2371,12.6597l-0.7905,6.1088 c-0.3177,2.029-0.6966,4.05-1.0498,6.0744l-1.096,6.0671c-0.3942,2.0168-0.8916,4.0139-1.34,6.0204L400.3059,286.3477z" fill="#000000"/></g><g id="change1_21"><path d="M389.1813 318.3224L392.2245 311.5998 394.9321 304.7392 489.7936 339.5097 485.2643 350.9864 480.1783 362.2229z" fill="#000000"/></g><g id="change1_6"><path d="M371.0561,347.0186c1.5104-1.9508,3.1049-3.8398,4.4745-5.8937 c1.4196-2.0163,2.9106-3.9856,4.1803-6.1006l84.7013,55.0766c-2.1653,3.4923-4.5817,6.8114-6.9607,10.1568 c-2.3291,3.3833-4.9121,6.5735-7.4437,9.8032L371.0561,347.0186z" fill="#000000"/></g><g id="change1_15"><path d="M347.0187,371.0558c1.9885-1.4656,3.7905-3.1601,5.672-4.7573c1.9185-1.5581,3.6277-3.3479,5.4363-5.028 l70.394,72.4734c-2.9804,2.8182-5.8876,5.7165-9.0322,8.3551c-3.108,2.6778-6.1607,5.4219-9.4279,7.9086L347.0187,371.0558z" fill="#000000"/></g><g id="change1_12"><path d="M318.3227,389.1809l6.5695-3.3718l6.4012-3.6921l52.5746,86.2764 c-3.537,2.0868-7.1082,4.1203-10.6759,6.1559c-3.6402,1.9055-7.3044,3.7698-10.9691,5.6288L318.3227,389.1809z" fill="#000000"/></g><g id="change1_20"><path d="M286.3479,400.3058l3.5961-0.8187c1.1984-0.2744,2.3649-0.6692,3.5508-0.9902l3.549-0.9972 c1.186-0.3235,2.3294-0.7831,3.4985-1.1604l31.9556,95.8465c-1.9547,0.6394-3.8868,1.351-5.864,1.917l-5.9329,1.6954 c-1.9832,0.5439-3.9503,1.152-5.95,1.6294l-6.0082,1.3981L286.3479,400.3058z" fill="#000000"/></g><g id="change1_17"><path d="M252.5832,404.1326l7.43-0.1909l7.3913-0.5435l9.7245,100.5641 c-4.0876,0.3152-8.1779,0.6631-12.2685,0.8961l-12.2773,0.3073V404.1326z" fill="#000000"/></g><g id="change1_1"><path d="M218.8183,400.3058c1.2002,0.2652,2.3876,0.5887,3.5957,0.8201l3.6363,0.6369 c1.2123,0.21,2.4185,0.4555,3.6339,0.6502l3.6695,0.4521L220.694,503.102l-6.1088-0.7905 c-2.029-0.3177-4.0501-0.6968-6.0744-1.0499l-6.0671-1.0962c-2.0168-0.3943-4.0139-0.8914-6.0204-1.3398L218.8183,400.3058z" fill="#000000"/></g><g id="change1_13"><path d="M186.8435 389.1809L193.5662 392.2243 200.4268 394.9319 165.6564 489.7934 154.1797 485.2642 142.9431 480.178z" fill="#000000"/></g><g id="change1_22"><path d="M158.1474,371.0558c1.9509,1.5105,3.8398,3.105,5.8937,4.4746c2.0163,1.4196,3.9856,2.9106,6.1006,4.1803 l-55.0766,84.701c-3.4923-2.1653-6.8114-4.5815-10.1568-6.9605c-3.3833-2.3291-6.5734-4.9121-9.8032-7.4437L158.1474,371.0558z" fill="#000000"/></g><g id="change1_25"><path d="M134.1103,347.0186c1.4656,1.9885,3.1602,3.7905,4.7573,5.672c1.5581,1.9185,3.3479,3.6276,5.028,5.4363 l-72.4734,70.394c-2.8182-2.9804-5.7165-5.8876-8.3551-9.0322c-2.6779-3.1079-5.4219-6.1607-7.9086-9.4279L134.1103,347.0186z" fill="#000000"/></g><g id="change1_7"><path d="M115.9851,318.3224l3.3718,6.5695l3.6921,6.4012l-86.2764,52.5746 c-2.0868-3.537-4.1203-7.1082-6.1558-10.6759c-1.9055-3.6402-3.7699-7.3045-5.6288-10.9691L115.9851,318.3224z" fill="#000000"/></g><g id="change1_16"><path d="M104.8603,286.3477l0.8187,3.5961c0.2744,1.1984,0.6692,2.3649,0.9902,3.5508l0.9972,3.549 c0.3234,1.186,0.7831,2.3294,1.1604,3.4985l-95.8465,31.9556c-0.6392-1.9547-1.351-3.8868-1.917-5.864l-1.6954-5.9329 c-0.5439-1.9832-1.152-3.9503-1.6294-5.95l-1.3981-6.0083L104.8603,286.3477z" fill="#000000"/></g><g id="change1_24"><path d="M101.0333,252.5828l0.1909,7.4301l0.5436,7.3914L1.2035,277.1287 c-0.3152-4.0878-0.6631-8.1779-0.8961-12.2685L0,252.5828L101.0333,252.5828L101.0333,252.5828z" fill="#000000"/></g><g id="change1_18"><path d="M104.8603,218.8181c-0.2652,1.2002-0.5887,2.3876-0.8201,3.5957l-0.6369,3.6363 c-0.2099,1.2123-0.4555,2.4185-0.6502,3.634l-0.4521,3.6695L2.0639,220.6939l0.7905-6.1088 c0.3177-2.029,0.6968-4.0501,1.0499-6.0744l1.0962-6.0671c0.3942-2.0168,0.8915-4.0139,1.3399-6.0204L104.8603,218.8181z" fill="#000000"/></g><g id="change1_3"><path d="M115.9851 186.8434L112.9417 193.5661 110.2342 200.4267 15.3726 165.6562 19.9018 154.1794 24.9879 142.9429z" fill="#000000"/></g><g id="change1_8"><path d="M134.1103,158.1473c-1.5105,1.9509-3.1051,3.8397-4.4745,5.8937 c-1.4197,2.0163-2.9107,3.9855-4.1805,6.1006l-84.701-55.0766c2.1653-3.4923,4.5815-6.8114,6.9605-10.1568 c2.3291-3.3833,4.9121-6.5735,7.4436-9.8032L134.1103,158.1473z" fill="#000000"/></g><g id="change1_14"><path d="M158.1474,134.1101c-1.9885,1.4657-3.7905,3.1601-5.672,4.7573 c-1.9185,1.5581-3.6277,3.3479-5.4363,5.028l-70.394-72.4734c2.9804-2.8182,5.8876-5.7165,9.0322-8.3551 c3.108-2.6779,6.1607-5.4219,9.4279-7.9086L158.1474,134.1101z" fill="#000000"/></g><g id="change1_11"><path d="M186.8435,115.9849l-6.5695,3.3718l-6.4012,3.6921l-52.5746-86.2764 c3.537-2.0868,7.1082-4.1203,10.6759-6.1558c3.6402-1.9055,7.3045-3.7699,10.9691-5.6288L186.8435,115.9849z" fill="#000000"/></g><g id="change1_5"><path d="M218.8183,104.8601l-3.5961,0.8185c-1.1983,0.2745-2.3649,0.6693-3.5508,0.9903l-3.549,0.9972 c-1.186,0.3234-2.3294,0.7831-3.4985,1.1604l-31.9554-95.8465c1.9546-0.6394,3.8866-1.351,5.8639-1.917l5.9329-1.6954 c1.9832-0.5439,3.9503-1.152,5.9499-1.6294l6.0083-1.3981L218.8183,104.8601z" fill="#000000"/></g><g id="change1_23"><path d="M252.5832,101.0332l-7.4301,0.1909l-7.3914,0.5434L228.0372,1.2035 c4.0878-0.3152,8.1779-0.6631,12.2685-0.8961L252.5832,0V101.0332z" fill="#000000"/></g><g id="change1_2"><path d="M286.3479,104.8601c-1.2002-0.2652-2.3876-0.5888-3.5957-0.8201l-3.6363-0.6368 c-1.2123-0.21-2.4185-0.4555-3.6339-0.6502l-3.6695-0.4521l12.6597-100.237l6.1088,0.7905 c2.029,0.3177,4.05,0.6966,6.0744,1.0499l6.0671,1.096c2.0168,0.3944,4.014,0.8916,6.0204,1.34L286.3479,104.8601z" fill="#000000"/></g><g id="change1_28"><path d="M318.3227 115.9849L311.6 112.9416 304.7394 110.234 339.5098 15.3725 350.9865 19.9017 362.2231 24.9878z" fill="#000000"/></g><g id="change1_10"><path d="M347.0187,134.1101c-1.9508-1.5105-3.8398-3.1051-5.8937-4.4746 c-2.0163-1.4196-3.9855-2.9106-6.1005-4.1803l55.0765-84.701c3.4923,2.1653,6.8115,4.5815,10.1568,6.9605 c3.3833,2.3291,6.5735,4.9121,9.8032,7.4436L347.0187,134.1101z" fill="#000000"/></g><g id="change1_26"><path d="M371.0561,158.1473c-1.4658-1.9885-3.1603-3.7905-4.7574-5.672 c-1.5581-1.9185-3.3479-3.6277-5.028-5.4363l72.4734-70.394c2.8182,2.9804,5.7165,5.8876,8.3551,9.0322 c2.6778,3.108,5.4219,6.1607,7.9086,9.4279L371.0561,158.1473z" fill="#000000"/></g><g id="change1_4"><path d="M389.1813,186.8434l-3.3719-6.5695l-3.6921-6.4012l86.2764-52.5746 c2.0868,3.537,4.1203,7.1082,6.1559,10.6759c1.9055,3.6402,3.7698,7.3045,5.6288,10.9692L389.1813,186.8434z" fill="#000000"/></g><g id="change1_9"><path d="M400.3059,218.8181l-0.8185-3.5961c-0.2745-1.1983-0.6693-2.3649-0.9903-3.5508l-0.9972-3.549 c-0.3234-1.186-0.7831-2.3294-1.1602-3.4985l95.8465-31.9556c0.6392,1.9547,1.3509,3.8868,1.9168,5.864l1.6954,5.9329 c0.5439,1.9832,1.152,3.9503,1.6294,5.9499l1.3981,6.0083L400.3059,218.8181z" fill="#000000"/></g><g id="change1_19"><path d="M404.133,252.5828l-0.1911-7.43l-0.5435-7.3914l100.5641-9.7244 c0.3152,4.0878,0.6631,8.1779,0.8961,12.2685l0.3073,12.2773L404.133,252.5828L404.133,252.5828z" fill="#000000"/></g></g></g></svg>