<?xml version="1.0" encoding="UTF-8" standalone="no"?><svg xmlns="http://www.w3.org/2000/svg" xmlns:xlink="http://www.w3.org/1999/xlink" fill="#000000" height="192.6" preserveAspectRatio="xMidYMid meet" version="1" viewBox="-2.0 -0.4 502.3 192.6" width="502.3" zoomAndPan="magnify"><g fill="#d8e1e3" id="change1_1"><path d="M130.7,60.6c-28.1,12.2-54.6,27.2-79.5,45.1c-3,2.1-1.2,6.7,2.5,5.9c11-2.2,22-4.4,33-6.6 c9-1.8,21-6.4,30.5-4.5c-4.4,9.7-17.6,15.8-25.7,21.5c-10,7-19.9,13.9-29.9,20.9c-20,13.9-40.1,27.6-60.2,41.3 c-3.4,2.3-0.2,8,3.3,5.6c23.7-16.1,47.3-32.3,70.8-48.7c11.2-7.8,22.3-15.5,33.4-23.4c7-5,13.6-9.8,15.7-18.5 c0.4-1.9-0.6-3.3-2.3-4c-9.3-3.7-19.7,0-29.1,1.9c-8.5,1.7-17,3.4-25.5,5.1c21-13.9,43-25.9,66.2-36 C137.8,64.5,134.5,58.9,130.7,60.6z" fill="inherit"/><path d="M132.2,84l-7.3,18.1c-1.6,3.9,4.7,5.6,6.3,1.7c2.4-6,4.9-12.1,7.3-18.1C140,81.8,133.7,80.1,132.2,84z" fill="inherit"/><path d="M291.9,42.9c-6.4,1.8-12.7,3.8-18.9,5.8c0.5-1.3,1.1-2.6,1.6-3.9c2.8-6.6,5.5-13.1,8.5-19.6 c1.4-3.1,5.3-14.9,8.7-18.1c2.6,0.7,5.8-1.9,3.8-4.6c-0.2-0.3-0.5-0.6-0.7-1c-0.8-1.2-2.2-1.9-3.7-1.5 c-8.2,2.4-11.4,16.5-14.5,23.5c-4.1,9.2-8,18.5-11.8,27.9c-11.8,4.1-23.4,8.6-34.9,13.5c-3.8,1.6-0.5,7.2,3.3,5.6 c9.3-4,18.7-7.6,28.3-11c-0.3,0.7-0.6,1.3-0.8,2c-10.9,25.9-22.8,51.4-39.6,74.1c-2.5,3.4,3.1,6.6,5.6,3.3 c14.7-19.8,25.6-41.7,35.4-64.3c2.6-6,5.1-11.9,7.6-17.9c7.9-2.7,15.9-5.2,24-7.6C297.7,48,296,41.7,291.9,42.9z" fill="inherit"/><path d="M472.4,25.2c-17.4,1.4-34.6,3.8-51.6,7.5c-8.7,1.9-17.3,4.1-25.8,6.6c-3.9,1.2-7.8,2.4-11.7,3.7 c-2.4,0.8-4.7,1.6-7.1,2.4c-4.2,2.1-7.5,0.6-9.8-4.4c0.8-0.9,1.6-1.9,2.3-2.8c1.6-1.9,1-4.6-1.4-5.4c-6.4-2.3-13.5,2.4-12.9,9.7 c0,0.5,0.1,1,0.2,1.5c-3.1,2.6-6.5,4.6-10.6,5.3c-6.8,1.1-8.4-2.3-13.7-5.4c-1-0.6-1.9-1.5-3.1-1.7c-2.8-0.5-5.5,1.3-7.5,3.1 c-1.6,1.4-2.9,3.3-4.1,5c-1,1.6-2.1,3.2-3.1,4.9c-2.1,5-5.6,5.6-10.5,1.8c2.1-3.1-2.5-6.4-5.1-3.9c-4,3.7-8.2,6.8-12.8,9.3 c0.1-1.5,0.2-3,0.3-4.5c0.3-4.2-6.2-4.2-6.5,0c-0.2,3.3-0.4,6.6-0.7,9.9c-0.2,2.7,2.8,3.7,4.9,2.8c4.9-2.2,9.4-4.9,13.5-8.1 c1,2.2,2.9,4.1,5.6,5c8.1,2.9,13.5-4.8,17.7-10.3c1.5-2,4.8-7.6,8.1-7.1c0.5,0.1,4,3.5,4.9,3.9c3.8,2,8.4,2.5,12.6,1.9 c5.2-0.7,9.6-3.2,13.5-6.4c3.5,3,8.9,4.2,13.3,3.7c7.4-0.8,14.5-4.2,21.5-6.4c7.8-2.4,15.8-4.6,23.8-6.4c18.4-4.3,37-7.1,55.9-8.6 C476.6,31.4,476.6,24.9,472.4,25.2z" fill="inherit"/><path d="M499.1,24.5c-1.2-1.2-3.4-1.2-4.6,0c-0.5,0.5-1.1,1.1-1.6,1.6c-1.2,1.2-1.2,3.4,0,4.6 c1.2,1.2,3.4,1.2,4.6,0l1.6-1.6C500.3,27.9,500.3,25.7,499.1,24.5z" fill="inherit"/><path d="M235,72.1c-3.1,1.5-6.2,2.9-9.3,4.4c-0.4-1.1-0.7-2.2-1.1-3.3c2.3-0.8,3.5-4.4,0.7-5.9 c-4.5-2.5-11.8,4-15,7.3c0.1-0.4,0.2-0.8,0.2-1.2c0.4-2.8-2.1-5-4.8-3.7c-4.4,2.1-8.8,4.4-13,6.9c0.1-0.2,0.2-0.4,0.2-0.6 c1.2-3.1-3.3-5.4-5.4-3.2c-6.6,7.1-13.9,13.6-21.1,20.1c1-3.8,1.9-7.5,3-11.2c1.2-4-5.1-5.7-6.3-1.7c-0.3,1-0.5,1.9-0.8,2.9 c-0.3-0.1-0.6-0.2-0.8-0.2c0.3-1.8-0.8-3.8-3.1-3.8c-4.6,0-9.1,1.7-12.2,5.2c-2.7,3-5,8.4-3.7,12.4c2.4,7.7,11.9,0.5,17.5-4.7 c-0.8,3.1-1.5,6.2-2.3,9.2c-3.3,3.2-6.5,6.5-9.5,10c-8,9.3-18.9,22.3-13.4,35.1c0.9,2.1,3.7,1.8,5.1,0.7 c13.5-10.8,19.2-26.2,23.5-42.2c0,0,0,0,0,0c5.9-5.6,12-11.1,18-16.6c-0.1,0.2-0.1,0.3-0.2,0.5c-1.5,3.9,4.8,5.6,6.3,1.7 c0.5-1.3,1-2.5,1.5-3.8c4.5-2.8,9-5.4,13.7-7.8c-0.5,1.6-1.1,3.2-1.9,4.8c-1.8,3.8,3.8,7.1,5.6,3.3c0.5-1,1-2.1,1.4-3.1 c0.6,0.9,1.6,1.6,2.8,1.6c2.5,0,6.9-5.9,8.9-7c0.4,1.3,0.8,2.5,1.3,3.8c0.7,2.1,2.8,2.9,4.8,1.9c4.3-2,8.6-4.1,12.9-6.1 C242.1,75.9,238.8,70.3,235,72.1z M153,89.2c-0.6,0.5-2.6,2.1-4.1,3.1c0.5-1.5,1.5-3.3,2.3-4.1c1.6-1.8,3.8-2.6,6.1-2.9 C155.8,86.8,154.5,88.1,153,89.2z M139.5,138.4c0-8,7.3-17.2,14.3-24.5C150.7,123,146.4,131.5,139.5,138.4z" fill="inherit"/></g></svg>